<svg xmlns="http://www.w3.org/2000/svg" width="24" height="24" viewBox="0 0 24 24"><defs><style>.a{fill:none;}.b{fill:#2f2f2f;}</style></defs><g transform="translate(0.423 23.577) rotate(-90)"><rect class="a" width="24" height="24" transform="translate(-0.423 -0.423)"/><g transform="translate(5.479 0.098)"><path class="b" d="M.7,23.27a.785.785,0,0,1-.7-.853.815.815,0,0,1,.233-.475l10.589-10.55L.314,1.365a.785.785,0,0,1-.1-1.1.785.785,0,0,1,1.1-.087L1.38.241l11.1,10.579a.776.776,0,0,1,0,1.1h0L1.332,23.038a.8.8,0,0,1-.63.233Z" transform="translate(0 0)"/></g></g></svg>