<svg xmlns="http://www.w3.org/2000/svg" width="23.996" height="23.996" viewBox="0 0 23.996 23.996"><defs><style>.a{fill:#2f2f2f;}</style></defs><g transform="translate(0 0)"><path class="a" d="M29.6,7.9a2.938,2.938,0,0,0-4.175,0L10.232,22.982a.5.5,0,0,0-.114.142.028.028,0,0,1-.028.028c-.028.057-.057.085-.057.142v.028L8.017,29.889a.968.968,0,0,0,.2.877.883.883,0,0,0,.625.255.789.789,0,0,0,.256-.028l6.532-2.01h.028c.057-.028.114-.028.142-.057a.028.028,0,0,0,.028-.028.283.283,0,0,0,.142-.113L31.107,13.7a2.915,2.915,0,0,0,0-4.161ZM10.2,28.813l1.108-3.51,2.443,2.434Zm5.226-1.925-3.295-3.255L23.609,12.2,26.9,15.481ZM29.914,12.4l-1.761,1.783-3.266-3.255,1.761-1.755a1.153,1.153,0,0,1,1.676,0l1.59,1.585A1.111,1.111,0,0,1,29.914,12.4Z" transform="translate(-7.984 -7.025)"/></g></svg>